<svg xmlns="http://www.w3.org/2000/svg" viewBox="0 0 720 453" width="720" height="453" font-family="monospace">
<rect x="0" y="0" width="720" height="453" rx="12" fill="#1a1a2e" stroke="none" stroke-width="1"/>
<text x="360.0" y="38" text-anchor="middle" fill="#444466" font-size="12" font-weight="normal">DATACENTER — VM MOVEMENT</text>
<rect x="50" y="80" width="180" height="323" rx="4" fill="#0f0f1a" stroke="#444466" stroke-width="2"/>
<rect x="50" y="80" width="180" height="26" rx="4" fill="#222244" stroke="#444466" stroke-width="0"/>
<text x="140.0" y="97" text-anchor="middle" fill="#aaaacc" font-size="11" font-weight="bold">RACK-01</text>
<rect x="58" y="114" width="164" height="56" rx="2" fill="#2a2a5a" stroke="#5555aa" stroke-width="1"/>
<rect x="62" y="119" width="6" height="14" rx="1" fill="#44ff88" stroke="none" stroke-width="1"/>
<text x="74" y="130" text-anchor="start" fill="#8888cc" font-size="9" font-weight="normal">host-01</text>
<rect x="72" y="138" width="148" height="14" rx="2" fill="#1a3a2a" stroke="#338855" stroke-width="1"/>
<text x="77" y="149" text-anchor="start" fill="#66cc88" font-size="8" font-weight="normal">▸ web-1</text>
<rect x="72" y="154" width="148" height="14" rx="2" fill="#1a3a2a" stroke="#338855" stroke-width="1"/>
<text x="77" y="165" text-anchor="start" fill="#66cc88" font-size="8" font-weight="normal">▸ grafana</text>
<rect x="58" y="175" width="164" height="40" rx="2" fill="#2a2a5a" stroke="#5555aa" stroke-width="1"/>
<rect x="62" y="180" width="6" height="14" rx="1" fill="#44ff88" stroke="none" stroke-width="1"/>
<text x="74" y="191" text-anchor="start" fill="#8888cc" font-size="9" font-weight="normal">host-02</text>
<rect x="72" y="199" width="148" height="14" rx="2" fill="#1a3a2a" stroke="#338855" stroke-width="1"/>
<text x="77" y="210" text-anchor="start" fill="#66cc88" font-size="8" font-weight="normal">▸ db-primary</text>
<rect x="58" y="220" width="164" height="40" rx="2" fill="#2a2a5a" stroke="#5555aa" stroke-width="1"/>
<rect x="62" y="225" width="6" height="14" rx="1" fill="#44ff88" stroke="none" stroke-width="1"/>
<text x="74" y="236" text-anchor="start" fill="#8888cc" font-size="9" font-weight="normal">host-03</text>
<rect x="72" y="244" width="148" height="14" rx="2" fill="#3a3a1a" stroke="#ffaa44" stroke-width="1"/>
<text x="77" y="255" text-anchor="start" fill="#ffdd66" font-size="8" font-weight="normal">▸ cache-1</text>
<rect x="58" y="265" width="164" height="24" rx="2" fill="#1a1a3a" stroke="#333355" stroke-width="1" stroke-dasharray="4,2"/>
<rect x="62" y="270" width="6" height="14" rx="1" fill="#333355" stroke="none" stroke-width="1"/>
<text x="74" y="281" text-anchor="start" fill="#444466" font-size="9" font-weight="normal">host-04</text>
<rect x="58" y="294" width="164" height="40" rx="2" fill="#2a2a5a" stroke="#5555aa" stroke-width="1"/>
<rect x="62" y="299" width="6" height="14" rx="1" fill="#44ff88" stroke="none" stroke-width="1"/>
<text x="74" y="310" text-anchor="start" fill="#8888cc" font-size="9" font-weight="normal">host-05</text>
<rect x="72" y="318" width="148" height="14" rx="2" fill="#1a3a2a" stroke="#338855" stroke-width="1"/>
<text x="77" y="329" text-anchor="start" fill="#66cc88" font-size="8" font-weight="normal">▸ api-1</text>
<rect x="270" y="80" width="180" height="323" rx="4" fill="#0f0f1a" stroke="#444466" stroke-width="2"/>
<rect x="270" y="80" width="180" height="26" rx="4" fill="#222244" stroke="#444466" stroke-width="0"/>
<text x="360.0" y="97" text-anchor="middle" fill="#aaaacc" font-size="11" font-weight="bold">RACK-02</text>
<rect x="278" y="114" width="164" height="40" rx="2" fill="#2a2a5a" stroke="#5555aa" stroke-width="1"/>
<rect x="282" y="119" width="6" height="14" rx="1" fill="#44ff88" stroke="none" stroke-width="1"/>
<text x="294" y="130" text-anchor="start" fill="#8888cc" font-size="9" font-weight="normal">host-06</text>
<rect x="292" y="138" width="148" height="14" rx="2" fill="#1a3a2a" stroke="#338855" stroke-width="1"/>
<text x="297" y="149" text-anchor="start" fill="#66cc88" font-size="8" font-weight="normal">▸ web-2</text>
<rect x="278" y="159" width="164" height="40" rx="2" fill="#2a2a5a" stroke="#5555aa" stroke-width="1"/>
<rect x="282" y="164" width="6" height="14" rx="1" fill="#44ff88" stroke="none" stroke-width="1"/>
<text x="294" y="175" text-anchor="start" fill="#8888cc" font-size="9" font-weight="normal">host-07</text>
<rect x="292" y="183" width="148" height="14" rx="2" fill="#1a3a2a" stroke="#338855" stroke-width="1"/>
<text x="297" y="194" text-anchor="start" fill="#66cc88" font-size="8" font-weight="normal">▸ cache-3</text>
<rect x="278" y="204" width="164" height="40" rx="2" fill="#2a2a5a" stroke="#5555aa" stroke-width="1"/>
<rect x="282" y="209" width="6" height="14" rx="1" fill="#44ff88" stroke="none" stroke-width="1"/>
<text x="294" y="220" text-anchor="start" fill="#8888cc" font-size="9" font-weight="normal">host-08</text>
<rect x="292" y="228" width="148" height="14" rx="2" fill="#1a3a2a" stroke="#338855" stroke-width="1"/>
<text x="297" y="239" text-anchor="start" fill="#66cc88" font-size="8" font-weight="normal">▸ monitor</text>
<rect x="278" y="249" width="164" height="56" rx="2" fill="#2a2a5a" stroke="#5555aa" stroke-width="1"/>
<rect x="282" y="254" width="6" height="14" rx="1" fill="#44ff88" stroke="none" stroke-width="1"/>
<text x="294" y="265" text-anchor="start" fill="#8888cc" font-size="9" font-weight="normal">host-09</text>
<rect x="292" y="273" width="148" height="14" rx="2" fill="#3a3a1a" stroke="#ffaa44" stroke-width="1"/>
<text x="297" y="284" text-anchor="start" fill="#ffdd66" font-size="8" font-weight="normal">▸ cache-1</text>
<rect x="292" y="289" width="148" height="14" rx="2" fill="#3a3a1a" stroke="#ffaa44" stroke-width="1"/>
<text x="297" y="300" text-anchor="start" fill="#ffdd66" font-size="8" font-weight="normal">▸ logs-1</text>
<rect x="278" y="310" width="164" height="40" rx="2" fill="#2a2a5a" stroke="#5555aa" stroke-width="1"/>
<rect x="282" y="315" width="6" height="14" rx="1" fill="#44ff88" stroke="none" stroke-width="1"/>
<text x="294" y="326" text-anchor="start" fill="#8888cc" font-size="9" font-weight="normal">host-10</text>
<rect x="292" y="334" width="148" height="14" rx="2" fill="#1a3a2a" stroke="#338855" stroke-width="1"/>
<text x="297" y="345" text-anchor="start" fill="#66cc88" font-size="8" font-weight="normal">▸ proxy-1</text>
<rect x="278" y="355" width="164" height="40" rx="2" fill="#2a2a5a" stroke="#5555aa" stroke-width="1"/>
<rect x="282" y="360" width="6" height="14" rx="1" fill="#44ff88" stroke="none" stroke-width="1"/>
<text x="294" y="371" text-anchor="start" fill="#8888cc" font-size="9" font-weight="normal">host-11</text>
<rect x="292" y="379" width="148" height="14" rx="2" fill="#1a3a2a" stroke="#338855" stroke-width="1"/>
<text x="297" y="390" text-anchor="start" fill="#66cc88" font-size="8" font-weight="normal">▸ db-replica-1</text>
<rect x="490" y="80" width="180" height="323" rx="4" fill="#0f0f1a" stroke="#444466" stroke-width="2"/>
<rect x="490" y="80" width="180" height="26" rx="4" fill="#222244" stroke="#444466" stroke-width="0"/>
<text x="580.0" y="97" text-anchor="middle" fill="#aaaacc" font-size="11" font-weight="bold">RACK-03</text>
<rect x="498" y="114" width="164" height="56" rx="2" fill="#2a2a5a" stroke="#5555aa" stroke-width="1"/>
<rect x="502" y="119" width="6" height="14" rx="1" fill="#44ff88" stroke="none" stroke-width="1"/>
<text x="514" y="130" text-anchor="start" fill="#8888cc" font-size="9" font-weight="normal">host-12</text>
<rect x="512" y="138" width="148" height="14" rx="2" fill="#1a3a2a" stroke="#338855" stroke-width="1"/>
<text x="517" y="149" text-anchor="start" fill="#66cc88" font-size="8" font-weight="normal">▸ web-3</text>
<rect x="512" y="154" width="148" height="14" rx="2" fill="#1a3a2a" stroke="#338855" stroke-width="1"/>
<text x="517" y="165" text-anchor="start" fill="#66cc88" font-size="8" font-weight="normal">▸ build-2</text>
<rect x="498" y="175" width="164" height="56" rx="2" fill="#2a2a5a" stroke="#5555aa" stroke-width="1"/>
<rect x="502" y="180" width="6" height="14" rx="1" fill="#44ff88" stroke="none" stroke-width="1"/>
<text x="514" y="191" text-anchor="start" fill="#8888cc" font-size="9" font-weight="normal">host-13</text>
<rect x="512" y="199" width="148" height="14" rx="2" fill="#3a3a1a" stroke="#ffaa44" stroke-width="1"/>
<text x="517" y="210" text-anchor="start" fill="#ffdd66" font-size="8" font-weight="normal">▸ logs-1</text>
<rect x="512" y="215" width="148" height="14" rx="2" fill="#3a3a1a" stroke="#ffaa44" stroke-width="1"/>
<text x="517" y="226" text-anchor="start" fill="#ffdd66" font-size="8" font-weight="normal">▸ logs-2</text>
<rect x="498" y="236" width="164" height="40" rx="2" fill="#2a2a5a" stroke="#5555aa" stroke-width="1"/>
<rect x="502" y="241" width="6" height="14" rx="1" fill="#44ff88" stroke="none" stroke-width="1"/>
<text x="514" y="252" text-anchor="start" fill="#8888cc" font-size="9" font-weight="normal">host-14</text>
<rect x="512" y="260" width="148" height="14" rx="2" fill="#1a3a2a" stroke="#338855" stroke-width="1"/>
<text x="517" y="271" text-anchor="start" fill="#66cc88" font-size="8" font-weight="normal">▸ db-replica-2</text>
<line x1="148.0" y1="252.0" x2="158.99999999999997" y2="249.2625" stroke="#ff6644" stroke-width="2" stroke-dasharray="4,2"/>
<line x1="158.99999999999997" y1="249.2625" x2="170.00000000000003" y2="247.05" stroke="#ff6644" stroke-width="2" stroke-dasharray="4,2"/>
<line x1="170.00000000000003" y1="247.05" x2="181.0" y2="245.3625" stroke="#ff6644" stroke-width="2" stroke-dasharray="4,2"/>
<line x1="181.0" y1="245.3625" x2="192.00000000000003" y2="244.20000000000005" stroke="#ff6644" stroke-width="2" stroke-dasharray="4,2"/>
<line x1="192.00000000000003" y1="244.20000000000005" x2="203.0" y2="243.5625" stroke="#ff6644" stroke-width="2" stroke-dasharray="4,2"/>
<line x1="203.0" y1="243.5625" x2="214.0" y2="243.44999999999996" stroke="#ff6644" stroke-width="2" stroke-dasharray="4,2"/>
<line x1="214.0" y1="243.44999999999996" x2="224.99999999999997" y2="243.8625" stroke="#ff6644" stroke-width="2" stroke-dasharray="4,2"/>
<line x1="224.99999999999997" y1="243.8625" x2="236.0" y2="244.8" stroke="#ff6644" stroke-width="2" stroke-dasharray="4,2"/>
<line x1="236.0" y1="244.8" x2="247.00000000000003" y2="246.26250000000005" stroke="#ff6644" stroke-width="2" stroke-dasharray="4,2"/>
<line x1="247.00000000000003" y1="246.26250000000005" x2="258.0" y2="248.25" stroke="#ff6644" stroke-width="2" stroke-dasharray="4,2"/>
<line x1="258.0" y1="248.25" x2="269.0" y2="250.7625" stroke="#ff6644" stroke-width="2" stroke-dasharray="4,2"/>
<line x1="269.0" y1="250.7625" x2="280.0" y2="253.8" stroke="#ff6644" stroke-width="2" stroke-dasharray="4,2"/>
<line x1="280.0" y1="253.8" x2="291.0" y2="257.3625" stroke="#ff6644" stroke-width="2" stroke-dasharray="4,2"/>
<line x1="291.0" y1="257.3625" x2="302.0" y2="261.45" stroke="#ff6644" stroke-width="2" stroke-dasharray="4,2"/>
<line x1="302.0" y1="261.45" x2="313.0" y2="266.0625" stroke="#ff6644" stroke-width="2" stroke-dasharray="4,2"/>
<line x1="313.0" y1="266.0625" x2="324.0" y2="271.20000000000005" stroke="#ff6644" stroke-width="2" stroke-dasharray="4,2"/>
<line x1="324.0" y1="271.20000000000005" x2="335.0" y2="276.86249999999995" stroke="#ff6644" stroke-width="2" stroke-dasharray="4,2"/>
<line x1="335.0" y1="276.86249999999995" x2="346.0" y2="283.05" stroke="#ff6644" stroke-width="2" stroke-dasharray="4,2"/>
<line x1="346.0" y1="283.05" x2="357.0" y2="289.76250000000005" stroke="#ff6644" stroke-width="2" stroke-dasharray="4,2"/>
<line x1="357.0" y1="289.76250000000005" x2="368.0" y2="297.0" stroke="#ff6644" stroke-width="2" stroke-dasharray="4,2"/>
<polygon points="368,297.0 363.11143432514217,296.177625510854 365.31003981231385,292.83604895004044" fill="#ff6644"/>
<text x="243.0" y="240.25" text-anchor="start" fill="#ff6644" font-size="7" font-weight="bold">cache-1</text>
<line x1="368.0" y1="162.0" x2="379.00000000000006" y2="159.2625" stroke="#ff6644" stroke-width="2" stroke-dasharray="4,2"/>
<line x1="379.00000000000006" y1="159.2625" x2="390.00000000000006" y2="157.04999999999998" stroke="#ff6644" stroke-width="2" stroke-dasharray="4,2"/>
<line x1="390.00000000000006" y1="157.04999999999998" x2="401.0" y2="155.36249999999998" stroke="#ff6644" stroke-width="2" stroke-dasharray="4,2"/>
<line x1="401.0" y1="155.36249999999998" x2="412.00000000000006" y2="154.20000000000002" stroke="#ff6644" stroke-width="2" stroke-dasharray="4,2"/>
<line x1="412.00000000000006" y1="154.20000000000002" x2="423.0" y2="153.5625" stroke="#ff6644" stroke-width="2" stroke-dasharray="4,2"/>
<line x1="423.0" y1="153.5625" x2="433.99999999999994" y2="153.45" stroke="#ff6644" stroke-width="2" stroke-dasharray="4,2"/>
<line x1="433.99999999999994" y1="153.45" x2="445.0" y2="153.86249999999998" stroke="#ff6644" stroke-width="2" stroke-dasharray="4,2"/>
<line x1="445.0" y1="153.86249999999998" x2="456.0" y2="154.8" stroke="#ff6644" stroke-width="2" stroke-dasharray="4,2"/>
<line x1="456.0" y1="154.8" x2="467.00000000000006" y2="156.26250000000002" stroke="#ff6644" stroke-width="2" stroke-dasharray="4,2"/>
<line x1="467.00000000000006" y1="156.26250000000002" x2="478.0" y2="158.25" stroke="#ff6644" stroke-width="2" stroke-dasharray="4,2"/>
<line x1="478.0" y1="158.25" x2="489.0" y2="160.7625" stroke="#ff6644" stroke-width="2" stroke-dasharray="4,2"/>
<line x1="489.0" y1="160.7625" x2="500.0" y2="163.8" stroke="#ff6644" stroke-width="2" stroke-dasharray="4,2"/>
<line x1="500.0" y1="163.8" x2="511.0" y2="167.3625" stroke="#ff6644" stroke-width="2" stroke-dasharray="4,2"/>
<line x1="511.0" y1="167.3625" x2="522.0" y2="171.45" stroke="#ff6644" stroke-width="2" stroke-dasharray="4,2"/>
<line x1="522.0" y1="171.45" x2="533.0" y2="176.0625" stroke="#ff6644" stroke-width="2" stroke-dasharray="4,2"/>
<line x1="533.0" y1="176.0625" x2="544.0" y2="181.20000000000002" stroke="#ff6644" stroke-width="2" stroke-dasharray="4,2"/>
<line x1="544.0" y1="181.20000000000002" x2="555.0" y2="186.86249999999998" stroke="#ff6644" stroke-width="2" stroke-dasharray="4,2"/>
<line x1="555.0" y1="186.86249999999998" x2="566.0" y2="193.05" stroke="#ff6644" stroke-width="2" stroke-dasharray="4,2"/>
<line x1="566.0" y1="193.05" x2="577.0" y2="199.76250000000002" stroke="#ff6644" stroke-width="2" stroke-dasharray="4,2"/>
<line x1="577.0" y1="199.76250000000002" x2="588.0" y2="207.0" stroke="#ff6644" stroke-width="2" stroke-dasharray="4,2"/>
<polygon points="588,207.0 583.1114343251422,206.177625510854 585.3100398123139,202.83604895004044" fill="#ff6644"/>
<text x="463.0" y="150.25" text-anchor="start" fill="#ff6644" font-size="7" font-weight="bold">logs-1</text>
<line x1="368.0" y1="252.0" x2="379.00000000000006" y2="246.3225" stroke="#ff6644" stroke-width="2" stroke-dasharray="4,2"/>
<line x1="379.00000000000006" y1="246.3225" x2="390.00000000000006" y2="241.09" stroke="#ff6644" stroke-width="2" stroke-dasharray="4,2"/>
<line x1="390.00000000000006" y1="241.09" x2="401.0" y2="236.3025" stroke="#ff6644" stroke-width="2" stroke-dasharray="4,2"/>
<line x1="401.0" y1="236.3025" x2="412.00000000000006" y2="231.96000000000004" stroke="#ff6644" stroke-width="2" stroke-dasharray="4,2"/>
<line x1="412.00000000000006" y1="231.96000000000004" x2="423.0" y2="228.0625" stroke="#ff6644" stroke-width="2" stroke-dasharray="4,2"/>
<line x1="423.0" y1="228.0625" x2="433.99999999999994" y2="224.60999999999999" stroke="#ff6644" stroke-width="2" stroke-dasharray="4,2"/>
<line x1="433.99999999999994" y1="224.60999999999999" x2="445.0" y2="221.60250000000002" stroke="#ff6644" stroke-width="2" stroke-dasharray="4,2"/>
<line x1="445.0" y1="221.60250000000002" x2="456.0" y2="219.04000000000002" stroke="#ff6644" stroke-width="2" stroke-dasharray="4,2"/>
<line x1="456.0" y1="219.04000000000002" x2="467.00000000000006" y2="216.92250000000004" stroke="#ff6644" stroke-width="2" stroke-dasharray="4,2"/>
<line x1="467.00000000000006" y1="216.92250000000004" x2="478.0" y2="215.25" stroke="#ff6644" stroke-width="2" stroke-dasharray="4,2"/>
<line x1="478.0" y1="215.25" x2="489.0" y2="214.0225" stroke="#ff6644" stroke-width="2" stroke-dasharray="4,2"/>
<line x1="489.0" y1="214.0225" x2="500.0" y2="213.24" stroke="#ff6644" stroke-width="2" stroke-dasharray="4,2"/>
<line x1="500.0" y1="213.24" x2="511.0" y2="212.90250000000003" stroke="#ff6644" stroke-width="2" stroke-dasharray="4,2"/>
<line x1="511.0" y1="212.90250000000003" x2="522.0" y2="213.01" stroke="#ff6644" stroke-width="2" stroke-dasharray="4,2"/>
<line x1="522.0" y1="213.01" x2="533.0" y2="213.5625" stroke="#ff6644" stroke-width="2" stroke-dasharray="4,2"/>
<line x1="533.0" y1="213.5625" x2="544.0" y2="214.56" stroke="#ff6644" stroke-width="2" stroke-dasharray="4,2"/>
<line x1="544.0" y1="214.56" x2="555.0" y2="216.0025" stroke="#ff6644" stroke-width="2" stroke-dasharray="4,2"/>
<line x1="555.0" y1="216.0025" x2="566.0" y2="217.89000000000001" stroke="#ff6644" stroke-width="2" stroke-dasharray="4,2"/>
<line x1="566.0" y1="217.89000000000001" x2="577.0" y2="220.22250000000003" stroke="#ff6644" stroke-width="2" stroke-dasharray="4,2"/>
<line x1="577.0" y1="220.22250000000003" x2="588.0" y2="223.0" stroke="#ff6644" stroke-width="2" stroke-dasharray="4,2"/>
<polygon points="588,223.0 583.1124987601032,223.82867713121786 584.091763937739,219.9503991999873" fill="#ff6644"/>
<text x="463.0" y="207.25" text-anchor="start" fill="#ff6644" font-size="7" font-weight="bold">logs-2</text>
<rect x="50" y="423" width="14" height="10" rx="2" fill="#2a2a5a" stroke="#5555aa" stroke-width="1"/>
<text x="68" y="432" text-anchor="start" fill="#666688" font-size="9" font-weight="normal">host (online)</text>
<rect x="190" y="423" width="14" height="10" rx="2" fill="#1a1a3a" stroke="#333355" stroke-width="1"/>
<text x="208" y="432" text-anchor="start" fill="#666688" font-size="9" font-weight="normal">host (offline)</text>
<rect x="330" y="423" width="14" height="10" rx="2" fill="#1a3a2a" stroke="#338855" stroke-width="1"/>
<text x="348" y="432" text-anchor="start" fill="#666688" font-size="9" font-weight="normal">virtual machine</text>
<rect x="470" y="423" width="14" height="10" rx="2" fill="#3a3a1a" stroke="#ffaa44" stroke-width="1"/>
<text x="488" y="432" text-anchor="start" fill="#666688" font-size="9" font-weight="normal">VM moving</text>
</svg>