<svg version="1.1" xmlns="http://www.w3.org/2000/svg" viewBox="0 0 917.3723958333333 314.77734375" width="1834.7447916666665" height="629.5546875" filter="invert(93%) hue-rotate(180deg)">
  <!-- svg-source:excalidraw -->
  
  <defs>
    <style class="style-fonts">
      @font-face {
        font-family: "Virgil";
        src: url("https://excalidraw.com/Virgil.woff2");
      }
      @font-face {
        font-family: "Cascadia";
        src: url("https://excalidraw.com/Cascadia.woff2");
      }
      @font-face {
        font-family: "Assistant";
        src: url("https://excalidraw.com/Assistant-Regular.woff2");
      }
    </style>
    
  </defs>
  <rect x="0" y="0" width="917.3723958333333" height="314.77734375" fill="#ffffff"></rect><g stroke-linecap="round" transform="translate(10 42.7890625) rotate(0 91.681640625 33.197265625)"><path d="M16.6 0 C68.86 2.97, 125.92 2.59, 166.76 0 M16.6 0 C69.93 1.02, 123.35 0.39, 166.76 0 M166.76 0 C179.38 -1.2, 183.38 3.58, 183.36 16.6 M166.76 0 C177.94 1.14, 185.43 3.3, 183.36 16.6 M183.36 16.6 C184.71 27.99, 181.59 35.46, 183.36 49.8 M183.36 16.6 C183.95 28.32, 183.51 40.84, 183.36 49.8 M183.36 49.8 C183.64 61.93, 177.12 67.15, 166.76 66.39 M183.36 49.8 C181.42 60.36, 179.68 68.54, 166.76 66.39 M166.76 66.39 C121.86 67.85, 81.83 66.43, 16.6 66.39 M166.76 66.39 C111.2 66.61, 56.58 65.04, 16.6 66.39 M16.6 66.39 C5.24 66.43, 1.75 62.14, 0 49.8 M16.6 66.39 C7.4 64.53, -1.89 59.94, 0 49.8 M0 49.8 C1.68 36.61, -2.04 25.34, 0 16.6 M0 49.8 C0.38 43.23, -0.72 36.68, 0 16.6 M0 16.6 C-0.09 6.03, 4.14 1.53, 16.6 0 M0 16.6 C-0.13 6.65, 5.57 -0.36, 16.6 0" stroke="#1e1e1e" stroke-width="2" fill="none"></path></g><g transform="translate(61.741676330566406 63.486328125) rotate(0 39.939964294433594 12.5)"><text x="39.939964294433594" y="17.52" font-family="Virgil, Segoe UI Emoji" font-size="20px" fill="#1e1e1e" text-anchor="middle" style="white-space: pre;" direction="ltr" dominant-baseline="alphabetic">Request</text></g><g stroke-linecap="round"><g transform="translate(206.4375 72.43359375) rotate(0 56.71875 0)"><path d="M0.66 0.4 C19.28 0.41, 94.05 -0.81, 112.72 -1.01 M-0.45 -0.44 C18.46 -0.22, 95.78 -0.1, 115.06 0" stroke="#1e1e1e" stroke-width="2" fill="none"></path></g><g transform="translate(206.4375 72.43359375) rotate(0 56.71875 0)"><path d="M91.54 8.47 C101.34 3.88, 108.06 0.56, 115.06 0 M91.54 8.47 C96.96 7.22, 102.6 5.35, 115.06 0" stroke="#1e1e1e" stroke-width="2" fill="none"></path></g><g transform="translate(206.4375 72.43359375) rotate(0 56.71875 0)"><path d="M91.59 -8.63 C101.21 -6.63, 107.92 -3.36, 115.06 0 M91.59 -8.63 C97.02 -5.86, 102.65 -3.71, 115.06 0" stroke="#1e1e1e" stroke-width="2" fill="none"></path></g></g><mask></mask><g stroke-linecap="round" transform="translate(342.83984375 34.4609375) rotate(0 98.75390625 35.55078125)"><path d="M17.78 0 C57.63 2.28, 98.28 1.75, 179.73 0 M17.78 0 C54.38 -0.86, 90.22 0.37, 179.73 0 M179.73 0 C193.54 -1, 197.49 6.34, 197.51 17.78 M179.73 0 C190.09 0.1, 195.38 5.26, 197.51 17.78 M197.51 17.78 C196.02 29.87, 197.3 46.22, 197.51 53.33 M197.51 17.78 C198.35 30.79, 196.84 42.59, 197.51 53.33 M197.51 53.33 C195.97 64.74, 191.04 72.04, 179.73 71.1 M197.51 53.33 C196.45 64.54, 193.74 73.11, 179.73 71.1 M179.73 71.1 C129.87 70.34, 77.8 72.72, 17.78 71.1 M179.73 71.1 C127.05 69.95, 75.75 69.86, 17.78 71.1 M17.78 71.1 C5.82 72.37, -1.53 66.44, 0 53.33 M17.78 71.1 C4.17 70.71, -1.83 63.93, 0 53.33 M0 53.33 C0.55 39.24, 1.5 26.77, 0 17.78 M0 53.33 C-0.29 39.89, 0.23 25.94, 0 17.78 M0 17.78 C0.23 4.82, 4.57 0.28, 17.78 0 M0 17.78 C-1.63 5.11, 3.68 0.72, 17.78 0" stroke="#1e1e1e" stroke-width="2" fill="none"></path></g><g transform="translate(353.6438217163086 57.51171875) rotate(0 87.9499282836914 12.5)"><text x="87.9499282836914" y="17.52" font-family="Virgil, Segoe UI Emoji" font-size="20px" fill="#1e1e1e" text-anchor="middle" style="white-space: pre;" direction="ltr" dominant-baseline="alphabetic">POST /operation/</text></g><g stroke-linecap="round"><g transform="translate(323.375 99.96484375) rotate(0 -59.373046875 -1.115234375)"><path d="M1.19 -0.06 C-18.75 -0.36, -98.97 -2.29, -118.77 -2.46 M0.35 -1.14 C-19.82 -1.19, -100.04 -0.77, -119.74 -1.05" stroke="#1e1e1e" stroke-width="2" fill="none"></path></g><g transform="translate(323.375 99.96484375) rotate(0 -59.373046875 -1.115234375)"><path d="M-96.22 -9.53 C-105.09 -6.2, -114.09 -1.17, -119.74 -1.05 M-96.22 -9.53 C-105.53 -6.82, -114.24 -3.25, -119.74 -1.05" stroke="#1e1e1e" stroke-width="2" fill="none"></path></g><g transform="translate(323.375 99.96484375) rotate(0 -59.373046875 -1.115234375)"><path d="M-96.27 7.57 C-105.02 4.56, -114 3.26, -119.74 -1.05 M-96.27 7.57 C-105.64 3.53, -114.33 0.36, -119.74 -1.05" stroke="#1e1e1e" stroke-width="2" fill="none"></path></g></g><mask></mask><g transform="translate(232.51692500750232 100.71679687499994) rotate(0 58.854225158691406 14.461914062499972)"><text x="0" y="20.26981875" font-family="Virgil, Segoe UI Emoji" font-size="23.139062499999998px" fill="#1e1e1e" text-anchor="start" style="white-space: pre;" direction="ltr" dominant-baseline="alphabetic">Ok, running</text></g><g stroke-linecap="round"><g transform="translate(170.37890625 130.71875) rotate(0 81.10481770833331 27.12565104166663)"><path d="M-1.11 0.1 C25.93 8.87, 134.99 44.25, 162.12 53.19 M0.5 -0.89 C27.39 7.94, 134.44 44.89, 161.13 54.17" stroke="#1e1e1e" stroke-width="2" fill="none"></path></g><g transform="translate(170.37890625 130.71875) rotate(0 81.10481770833331 27.12565104166663)"><path d="M136.13 54.57 C143.51 54.54, 148.78 53.7, 161.13 54.17 M136.13 54.57 C141.76 54.84, 148.29 54.12, 161.13 54.17" stroke="#1e1e1e" stroke-width="2" fill="none"></path></g><g transform="translate(170.37890625 130.71875) rotate(0 81.10481770833331 27.12565104166663)"><path d="M141.72 38.41 C147.56 42.99, 151.22 46.8, 161.13 54.17 M141.72 38.41 C145.93 42.76, 151.03 46.16, 161.13 54.17" stroke="#1e1e1e" stroke-width="2" fill="none"></path></g></g><mask></mask><g stroke-linecap="round" transform="translate(342.60286458333337 147.51953125) rotate(0 121.45507812500006 31.5234375)"><path d="M15.76 0 C69.83 0.01, 121.42 0.43, 227.15 0 M15.76 0 C81.9 2.45, 147.09 1.95, 227.15 0 M227.15 0 C239.17 -0.63, 241.79 5.69, 242.91 15.76 M227.15 0 C238.28 1.56, 244.49 3.19, 242.91 15.76 M242.91 15.76 C241.34 25.99, 242.85 38.61, 242.91 47.29 M242.91 15.76 C243.16 23.61, 242.71 31.04, 242.91 47.29 M242.91 47.29 C242.84 58.41, 238.91 63.44, 227.15 63.05 M242.91 47.29 C241.87 59.08, 237.46 64.33, 227.15 63.05 M227.15 63.05 C176.75 63.34, 125.51 64.78, 15.76 63.05 M227.15 63.05 C169.01 64.24, 111.47 64.34, 15.76 63.05 M15.76 63.05 C3.9 63.27, 0.64 58.55, 0 47.29 M15.76 63.05 C6.66 63.9, -0.3 56.97, 0 47.29 M0 47.29 C2.01 35.59, 1.28 23.98, 0 15.76 M0 47.29 C-0.15 39.99, 0.49 33.71, 0 15.76 M0 15.76 C1.67 4.67, 4.93 -0.1, 15.76 0 M0 15.76 C0.75 4.42, 3.47 -0.13, 15.76 0" stroke="#1e1e1e" stroke-width="2" fill="none"></path></g><g transform="translate(362.6480153401693 166.54296875) rotate(0 101.40992736816406 12.5)"><text x="101.40992736816406" y="17.52" font-family="Virgil, Segoe UI Emoji" font-size="20px" fill="#1e1e1e" text-anchor="middle" style="white-space: pre;" direction="ltr" dominant-baseline="alphabetic">GET /operation/&lt;id&gt;</text></g><g stroke-linecap="round"><g transform="translate(328.69010416666663 205.84505208333337) rotate(0 -93.57552083333331 -34.051432291666686)"><path d="M0.98 -0.03 C-29.98 -11.58, -154.67 -57.38, -186.06 -68.85 M0.03 -1.09 C-30.96 -12.55, -155.06 -56.56, -186.43 -67.7" stroke="#1e1e1e" stroke-width="2" fill="none"></path></g><g transform="translate(328.69010416666663 205.84505208333337) rotate(0 -93.57552083333331 -34.051432291666686)"><path d="M-161.43 -67.9 C-168.32 -65.82, -176.35 -67.87, -186.43 -67.7 M-161.43 -67.9 C-167.16 -67.17, -173.14 -67.91, -186.43 -67.7" stroke="#1e1e1e" stroke-width="2" fill="none"></path></g><g transform="translate(328.69010416666663 205.84505208333337) rotate(0 -93.57552083333331 -34.051432291666686)"><path d="M-167.15 -51.78 C-172.54 -54.16, -179 -60.61, -186.43 -67.7 M-167.15 -51.78 C-171.42 -54.88, -176.05 -59.46, -186.43 -67.7" stroke="#1e1e1e" stroke-width="2" fill="none"></path></g></g><mask></mask><g transform="translate(136.1640625 180.69010416666674) rotate(20.354759556832146 97.90994262695312 12.5)"><text x="0" y="17.52" font-family="Virgil, Segoe UI Emoji" font-size="20px" fill="#1e1e1e" text-anchor="start" style="white-space: pre;" direction="ltr" dominant-baseline="alphabetic">Status = RUNNING</text></g><g stroke-linecap="round"><g transform="translate(550.1328125 69.40625) rotate(0 77.322265625 0.462890625)"><path d="M0.55 0.82 C26.33 1.02, 129.45 1.56, 155.23 1.44 M-0.62 0.2 C25.01 0.02, 128.68 -0.54, 154.59 -0.42" stroke="#1e1e1e" stroke-width="2" fill="none"></path></g><g transform="translate(550.1328125 69.40625) rotate(0 77.322265625 0.462890625)"><path d="M131.11 8.16 C140.51 6.09, 148.06 3.19, 154.59 -0.42 M131.11 8.16 C136.84 6.73, 141.79 4.08, 154.59 -0.42" stroke="#1e1e1e" stroke-width="2" fill="none"></path></g><g transform="translate(550.1328125 69.40625) rotate(0 77.322265625 0.462890625)"><path d="M131.09 -8.94 C140.53 -5.14, 148.09 -2.18, 154.59 -0.42 M131.09 -8.94 C136.93 -6.47, 141.89 -5.23, 154.59 -0.42" stroke="#1e1e1e" stroke-width="2" fill="none"></path></g></g><mask></mask><g transform="translate(550.88671875 10) rotate(0 72.57496044874199 24.041015625)"><text x="0" y="16.84794375" font-family="Virgil, Segoe UI Emoji" font-size="19.2328125px" fill="#1e1e1e" text-anchor="start" style="white-space: pre;" direction="ltr" dominant-baseline="alphabetic">Add background</text><text x="0" y="40.888959375" font-family="Virgil, Segoe UI Emoji" font-size="19.2328125px" fill="#1e1e1e" text-anchor="start" style="white-space: pre;" direction="ltr" dominant-baseline="alphabetic">process</text></g><g stroke-linecap="round" transform="translate(709.8645833333333 38.30533854166663) rotate(0 98.75390625 30)"><path d="M15 0 C54.4 -0.16, 96.52 0.33, 182.51 0 M15 0 C62.28 0.15, 111.07 0.96, 182.51 0 M182.51 0 C191.46 -1.08, 199.05 5.68, 197.51 15 M182.51 0 C190.31 -0.01, 197.9 6.46, 197.51 15 M197.51 15 C195.77 22.17, 199.54 32.08, 197.51 45 M197.51 15 C198.08 21.47, 197.51 29.87, 197.51 45 M197.51 45 C197.02 56.82, 190.92 60.66, 182.51 60 M197.51 45 C195.49 54, 193.11 57.85, 182.51 60 M182.51 60 C117.94 57.14, 55.81 57.69, 15 60 M182.51 60 C137.09 62.03, 90.77 60.64, 15 60 M15 60 C6.48 59.85, 0.03 54.78, 0 45 M15 60 C3.18 57.98, -1.83 52.85, 0 45 M0 45 C1.69 35.09, -0.76 25.55, 0 15 M0 45 C-0.3 34.02, 0.1 24.28, 0 15 M0 15 C1.86 3.12, 5.05 -1.25, 15 0 M0 15 C0.46 2.87, 4.36 -1.51, 15 0" stroke="#1e1e1e" stroke-width="2" fill="none"></path></g><g transform="translate(749.62855275472 43.30533854166663) rotate(0 58.98993682861328 25)"><text x="58.98993682861328" y="17.52" font-family="Virgil, Segoe UI Emoji" font-size="20px" fill="#1e1e1e" text-anchor="middle" style="white-space: pre;" direction="ltr" dominant-baseline="alphabetic">Optimization</text><text x="58.98993682861328" y="42.519999999999996" font-family="Virgil, Segoe UI Emoji" font-size="20px" fill="#1e1e1e" text-anchor="middle" style="white-space: pre;" direction="ltr" dominant-baseline="alphabetic">Model</text></g><g stroke-linecap="round" transform="translate(763.4199218750002 203.732421875) rotate(0 50.84635416666663 50.5224609375)"><path d="M45.03 -0.17 C52.83 -1.8, 63.47 1.17, 71.39 4.52 C79.31 7.87, 87.47 13.19, 92.56 19.95 C97.64 26.71, 101.26 36.64, 101.91 45.09 C102.57 53.55, 100.08 62.83, 96.51 70.68 C92.94 78.52, 87.31 87.13, 80.48 92.18 C73.66 97.23, 63.88 100.16, 55.56 100.96 C47.25 101.75, 38.1 100.33, 30.6 96.93 C23.1 93.52, 15.75 87.4, 10.55 80.52 C5.35 73.64, 0.6 64.1, -0.59 55.63 C-1.79 47.16, -0.22 37.44, 3.4 29.7 C7.03 21.96, 13.63 14.02, 21.15 9.2 C28.68 4.37, 43.25 2.11, 48.55 0.76 C53.85 -0.59, 52.81 0.32, 52.95 1.09 M73.32 7.06 C80.6 10.16, 88.22 15.95, 92.79 22.92 C97.36 29.89, 100.43 40.36, 100.74 48.9 C101.05 57.43, 98.36 66.82, 94.64 74.15 C90.93 81.48, 85.54 88.36, 78.46 92.88 C71.37 97.4, 60.67 101.08, 52.12 101.29 C43.56 101.49, 34.37 97.94, 27.12 94.11 C19.86 90.27, 12.89 85.18, 8.59 78.27 C4.3 71.36, 2.06 61.38, 1.35 52.66 C0.64 43.94, 0.57 33.57, 4.34 25.94 C8.11 18.32, 16.46 11.11, 23.97 6.92 C31.48 2.74, 41.11 0.97, 49.37 0.83 C57.64 0.68, 69.43 5.02, 73.57 6.04 C77.7 7.06, 74.44 6.44, 74.2 6.93" stroke="#1e1e1e" stroke-width="2" fill="none"></path></g><g transform="translate(799.2424821463744 241.53010808136128) rotate(0 15.069992065429688 12.5)"><text x="15.069992065429688" y="17.52" font-family="Virgil, Segoe UI Emoji" font-size="20px" fill="#1e1e1e" text-anchor="middle" style="white-space: pre;" direction="ltr" dominant-baseline="alphabetic">DB</text></g><g stroke-linecap="round" transform="translate(774.8424479166665 210.45768229166663) rotate(0 37.6806640625 10.8251953125)"><path d="M21.16 0.47 C28.14 -0.69, 40.09 0.06, 47.87 0.59 C55.64 1.12, 63.12 1.91, 67.81 3.64 C72.51 5.38, 76.43 8.46, 76.04 10.99 C75.65 13.52, 71.2 16.91, 65.46 18.84 C59.72 20.77, 49.92 22.56, 41.6 22.57 C33.28 22.58, 22.13 20.43, 15.54 18.92 C8.95 17.4, 4.08 15.46, 2.07 13.48 C0.05 11.49, -0.7 9.21, 3.46 7.01 C7.63 4.82, 22.15 1.42, 27.04 0.3 C31.93 -0.82, 32.51 0.22, 32.8 0.28 M20.04 1.75 C26.88 0.6, 39.22 -1.12, 47.5 -0.85 C55.77 -0.59, 65.14 1.43, 69.69 3.35 C74.24 5.27, 75.79 8.39, 74.78 10.66 C73.77 12.94, 69.35 15.23, 63.6 17 C57.85 18.76, 48.04 20.81, 40.3 21.27 C32.55 21.73, 23.59 20.85, 17.14 19.76 C10.69 18.67, 3.79 16.88, 1.58 14.73 C-0.62 12.58, 0.83 9.01, 3.91 6.85 C6.99 4.7, 16.9 2.54, 20.05 1.81 C23.2 1.08, 22.13 2.36, 22.82 2.47" stroke="#1e1e1e" stroke-width="2" fill="none"></path></g><g stroke-linecap="round"><g transform="translate(812.6419270833335 112.08528645833331) rotate(0 0.7177734375 42.71321614583334)"><path d="M1.15 0.61 C1.59 14.59, 1.83 70.17, 1.91 84.46 M0.29 -0.11 C0.69 13.93, 1.1 71.38, 1.21 85.5" stroke="#1e1e1e" stroke-width="2" fill="none"></path></g><g transform="translate(812.6419270833335 112.08528645833331) rotate(0 0.7177734375 42.71321614583334)"><path d="M-7.52 62.07 C-4.31 68.34, -4.86 73.43, 1.21 85.5 M-7.52 62.07 C-4.6 70.38, -1.46 80.65, 1.21 85.5" stroke="#1e1e1e" stroke-width="2" fill="none"></path></g><g transform="translate(812.6419270833335 112.08528645833331) rotate(0 0.7177734375 42.71321614583334)"><path d="M9.58 61.94 C8.74 68.4, 4.13 73.52, 1.21 85.5 M9.58 61.94 C5.97 70.39, 2.58 80.72, 1.21 85.5" stroke="#1e1e1e" stroke-width="2" fill="none"></path></g></g><mask></mask><g transform="translate(824.009114583333 126.38541666666674) rotate(0 35.54997253417969 25)"><text x="0" y="17.52" font-family="Virgil, Segoe UI Emoji" font-size="20px" fill="#1e1e1e" text-anchor="start" style="white-space: pre;" direction="ltr" dominant-baseline="alphabetic">Update</text><text x="0" y="42.519999999999996" font-family="Virgil, Segoe UI Emoji" font-size="20px" fill="#1e1e1e" text-anchor="start" style="white-space: pre;" direction="ltr" dominant-baseline="alphabetic">status</text></g><g stroke-linecap="round"><g transform="translate(748.1295887351534 239.61277208254455) rotate(0 -74.74741155507672 -23.99151622601164)"><path d="M-0.12 0.29 C-25.02 -7.54, -124.88 -38.85, -149.59 -46.78 M-1.64 -0.61 C-26.7 -8.75, -126.1 -40.16, -150.6 -48.28" stroke="#1e1e1e" stroke-width="2" fill="none"></path></g><g transform="translate(748.1295887351534 239.61277208254455) rotate(0 -74.74741155507672 -23.99151622601164)"><path d="M-125.61 -49.2 C-132.31 -49.13, -137.96 -46.89, -150.6 -48.28 M-125.61 -49.2 C-135.1 -48.77, -142.63 -49.11, -150.6 -48.28" stroke="#1e1e1e" stroke-width="2" fill="none"></path></g><g transform="translate(748.1295887351534 239.61277208254455) rotate(0 -74.74741155507672 -23.99151622601164)"><path d="M-130.86 -32.93 C-136.08 -37.52, -140.22 -39.96, -150.6 -48.28 M-130.86 -32.93 C-138.62 -38.3, -144.29 -44.39, -150.6 -48.28" stroke="#1e1e1e" stroke-width="2" fill="none"></path></g></g><mask></mask><g transform="translate(624.171875 186.720703125) rotate(15.160992798307955 66.24993896484375 12.5)"><text x="0" y="17.52" font-family="Virgil, Segoe UI Emoji" font-size="20px" fill="#1e1e1e" text-anchor="start" style="white-space: pre;" direction="ltr" dominant-baseline="alphabetic">Check status</text></g></svg>